<svg width="30" height="24" viewBox="0 0 30 24" fill="none" xmlns="http://www.w3.org/2000/svg">
<g id="Group">
<path id="Vector" d="M22.1367 4.24842C18.4624 7.76963 17.9503 8.34551 18.0616 8.79375C18.1954 9.242 18.997 9.81787 19.4866 9.81787C19.5754 9.81787 21.5133 8.02551 23.8288 5.82745C28.1265 1.73036 28.4385 1.28211 27.6588 0.556413C26.9022 -0.19025 26.4344 0.129748 22.1367 4.24842Z" fill="#29275B"/>
<path id="Vector_2" d="M0.55859 7.83376C0.469804 7.89727 0.402893 9.00709 0.402893 10.2661C0.402893 12.3359 0.447286 12.5924 0.826234 12.8058C1.07136 12.9124 1.49406 13.0191 1.78358 13.0191C2.27318 13.0191 2.36261 13.2965 3.49817 17.7778C4.16599 20.3815 4.85633 22.7288 5.03455 22.9847L5.34658 23.4755H14.7881H24.2296L24.5417 22.9847C24.6974 22.7288 25.3877 20.3809 26.0337 17.7778C27.2136 13.1258 27.2586 13.0191 27.8152 13.0191C29.0176 13.0191 29.1514 12.6991 29.0845 10.1379L29.0176 7.7906L26.145 7.72648L23.2504 7.66235L21.6915 9.1563C19.91 10.842 19.2866 11.0769 18.151 10.5645C17.0373 10.0738 16.4808 8.57981 17.1486 7.93981C17.3494 7.74744 15.5679 7.68393 9.06529 7.68393C4.45551 7.68393 0.625501 7.74806 0.55859 7.83376ZM11.0469 13.2756C11.3364 13.553 11.4477 20.1257 11.1807 20.7872C11.025 21.1929 9.95572 21.2355 9.57742 20.8723C9.3992 20.7015 9.31042 19.5707 9.31042 17.1593C9.31042 14.2997 9.37733 13.6381 9.66684 13.3607C10.0677 12.955 10.6686 12.9124 11.0469 13.2756ZM15.501 13.2756C15.8793 13.6381 15.8793 20.5098 15.501 20.8729C15.1671 21.1929 14.3654 21.1929 14.0315 20.8729C13.8533 20.7021 13.7645 19.5498 13.7645 17.0743C13.7645 13.3613 13.8533 13.0197 14.7669 13.0197C15.0332 13.0191 15.3446 13.1258 15.501 13.2756ZM19.8656 13.3607C20.1551 13.6381 20.222 14.2997 20.222 17.1593C20.222 19.5707 20.1333 20.7021 19.955 20.8723C19.5767 21.2349 18.5075 21.1923 18.3518 20.7872C18.0848 20.1257 18.1961 13.553 18.4856 13.2756C18.8632 12.9124 19.4648 12.955 19.8656 13.3607Z" fill="#29275B"/>
</g>
</svg>
